<svg width="55" height="78" viewBox="0 0 55 78" fill="none" xmlns="http://www.w3.org/2000/svg">
<path d="M51.366 22.7632L51.3662 22.7634C53.2453 25.5876 54.1144 28.9643 53.8323 32.3448C53.5501 35.7253 52.1334 38.9112 49.8121 41.3849C47.4908 43.8586 44.4014 45.4749 41.0456 45.9711C37.6898 46.4674 34.2648 45.8145 31.3269 44.1186L30.5769 43.6856V44.5516V69.9577V70.4577H31.0769C33.0049 70.4577 34.8539 71.2235 36.2172 72.5868C37.4621 73.8318 38.2089 75.4818 38.3291 77.2271H16.0552C16.1755 75.4818 16.9223 73.8318 18.1672 72.5868C19.5305 71.2235 21.3795 70.4577 23.3075 70.4577H23.8075V69.9577V44.5516V43.6856L23.0575 44.1186C20.1196 45.8145 16.6946 46.4674 13.3388 45.9711C9.98301 45.4749 6.89357 43.8586 4.57229 41.3849C2.25101 38.9112 0.834245 35.7253 0.552119 32.3448C0.269992 28.9643 1.13908 25.5876 3.01821 22.7634L3.01834 22.7632C3.51675 22.0133 4.29262 21.4922 5.17527 21.3144C6.05792 21.1366 6.97506 21.3167 7.72491 21.8151C8.47477 22.3135 8.99592 23.0894 9.17372 23.972C9.35145 24.8543 9.17156 25.7711 8.67361 26.5208C7.9528 27.5938 7.49358 28.8209 7.33282 30.1036C7.17201 31.3867 7.31437 32.6897 7.74846 33.9078C8.18255 35.1259 8.89627 36.2253 9.8323 37.1175C10.7683 38.0098 11.9006 38.6701 13.1381 39.0454C14.3756 39.4207 15.6839 39.5006 16.9578 39.2785C18.2318 39.0565 19.4359 38.5388 20.4735 37.767C21.5111 36.9952 22.3532 35.9908 22.9323 34.8345C23.5112 33.6785 23.8109 32.4027 23.8075 31.1098C23.8075 31.1096 23.8075 31.1093 23.8075 31.1091L23.8075 22.6418V22.2882L23.4741 22.1704C20.9934 21.2933 18.9026 19.5675 17.5712 17.298C16.2399 15.0284 15.7537 12.3613 16.1987 9.76796C16.6436 7.17464 17.991 4.8221 20.0027 3.12614C22.0145 1.43018 24.561 0.5 27.1922 0.5C29.8234 0.5 32.3699 1.43018 34.3816 3.12614C36.3934 4.8221 37.7408 7.17464 38.1857 9.76796C38.6307 12.3613 38.1445 15.0284 36.8131 17.298C35.4818 19.5675 33.391 21.2933 30.9102 22.1704L30.5769 22.2882V22.6418L30.5769 31.1091C30.5769 31.1093 30.5769 31.1096 30.5769 31.1098C30.5735 32.4027 30.8732 33.6785 31.4521 34.8345C32.0311 35.9908 32.8733 36.9952 33.9109 37.767C34.9485 38.5388 36.1526 39.0565 37.4266 39.2785C38.7005 39.5006 40.0088 39.4207 41.2463 39.0454C42.4838 38.6701 43.6161 38.0098 44.5521 37.1175C45.4881 36.2253 46.2018 35.1259 46.6359 33.9078C47.07 32.6896 47.2124 31.3867 47.0516 30.1036C46.8908 28.8208 46.4315 27.5937 45.7107 26.5206C45.4643 26.1496 45.2933 25.7337 45.2074 25.2966C45.1215 24.8592 45.1226 24.4091 45.2107 23.972C45.2987 23.535 45.472 23.1196 45.7205 22.7495C45.9691 22.3794 46.2882 22.0619 46.6595 21.8151C47.0308 21.5683 47.447 21.3971 47.8845 21.3112C48.322 21.2252 48.7721 21.2263 49.2091 21.3144C49.6462 21.4024 50.0616 21.5757 50.4317 21.8243C50.8018 22.0728 51.1193 22.3919 51.366 22.7632ZM29.6282 8.04113C28.9071 7.55933 28.0594 7.30217 27.1922 7.30217C26.0293 7.30217 24.914 7.76413 24.0917 8.58643C23.2694 9.40872 22.8075 10.524 22.8075 11.6869C22.8075 12.5541 23.0646 13.4018 23.5464 14.1229C24.0282 14.844 24.713 15.406 25.5142 15.7378C26.3154 16.0697 27.1971 16.1565 28.0476 15.9874C28.8982 15.8182 29.6794 15.4006 30.2927 14.7874C30.9059 14.1741 31.3235 13.3929 31.4927 12.5423C31.6618 11.6918 31.575 10.8101 31.2431 10.0089C30.9113 9.20773 30.3493 8.52293 29.6282 8.04113Z" fill="white" stroke="black"/>
</svg>
