<svg width="68" height="68" viewBox="0 0 68 68" fill="none" xmlns="http://www.w3.org/2000/svg">
<path d="M49.0525 0.6203L9.07252 39.6358L0 66.8423L27.9412 57.6878L31.7458 53.975C30.0678 53.6522 26.8443 52.9904 26.7536 52.9718L26.6924 53.0315L14.1675 40.5387L49.0525 6.49526L61.7157 18.8531L53.6503 26.724L54.3344 31.9314L67.7359 18.8531L49.0525 0.6203ZM47.802 27.6152C45.9194 27.6152 45.6814 27.6295 45.4378 27.757C44.9602 28.007 44.9108 28.2025 44.7224 30.5793C44.6284 31.765 44.5191 32.7738 44.4796 32.8209C44.4402 32.8681 44.1155 32.9868 43.7579 33.0845C42.7305 33.3651 41.7658 33.7435 40.7126 34.2795C40.1764 34.5523 39.6946 34.7757 39.6421 34.7757C39.5895 34.7757 38.8563 34.2006 38.0131 33.4976C36.1198 31.9191 36.0664 31.8792 35.7493 31.8136C35.2949 31.7195 34.9163 31.9836 33.4649 33.4084C32.0399 34.8072 31.8111 35.1254 31.9081 35.5728C31.9734 35.8736 32.0244 35.9388 33.6315 37.7703C34.3521 38.5915 34.9415 39.3066 34.9415 39.3596C34.9415 39.4126 34.7129 39.8839 34.4333 40.4073C33.8842 41.4351 33.4961 42.3765 33.2085 43.3791C33.1084 43.7281 32.9871 44.0452 32.9388 44.0837C32.8904 44.1222 31.8567 44.2286 30.6417 44.3203C28.2062 44.5042 28.0055 44.5527 27.7493 45.0187C27.6187 45.2565 27.604 45.4888 27.604 47.326C27.604 49.1631 27.6187 49.3954 27.7493 49.6332C28.0048 50.0981 28.209 50.1476 30.6021 50.3271C31.7955 50.4165 32.8257 50.5054 32.8915 50.5244C32.9655 50.5457 33.0833 50.8162 33.1998 51.2329C33.4835 52.2474 33.8688 53.1877 34.4333 54.2443C34.7129 54.7676 34.9415 55.2393 34.9415 55.2923C34.9415 55.3453 34.3787 56.0303 33.6907 56.8144C31.7062 59.0764 31.7145 59.0628 32.0156 59.6698C32.2537 60.1498 34.8845 62.6721 35.2771 62.7968C35.7767 62.9555 36.0102 62.8174 37.8774 61.2585L39.6135 59.8094L40.5716 60.3007C41.7241 60.8919 42.891 61.352 43.8072 61.5762C44.2617 61.6875 44.4964 61.783 44.5225 61.8676C44.5439 61.9369 44.636 62.9464 44.7274 64.1109C44.9107 66.4464 44.9615 66.6456 45.4378 66.8949C45.6814 67.0224 45.9194 67.0367 47.802 67.0367C49.6846 67.0367 49.9226 67.0224 50.1662 66.8949C50.6425 66.6456 50.6933 66.4464 50.8766 64.1109C50.968 62.9464 51.06 61.9386 51.0808 61.8712C51.1059 61.79 51.3906 61.6775 51.9259 61.5376C52.9252 61.2763 53.8104 60.9248 54.9616 60.3325C55.4495 60.0815 55.8958 59.8762 55.9533 59.8762C56.0108 59.8762 56.7477 60.4516 57.5909 61.1546C58.4341 61.8576 59.241 62.5212 59.3841 62.6294C59.7538 62.9086 60.2215 62.9076 60.6369 62.6268C61.1663 62.2688 63.4908 59.923 63.6237 59.6127C63.8499 59.0845 63.7667 58.9419 62.1531 57.0945C61.3333 56.156 60.6625 55.3409 60.6625 55.2832C60.6625 55.2256 60.8729 54.7889 61.1301 54.3128C61.737 53.1895 62.0972 52.3256 62.3649 51.3503C62.5084 50.828 62.6236 50.5498 62.7068 50.5254C62.7758 50.5051 63.8085 50.4156 65.0019 50.3264C67.3951 50.1475 67.5992 50.0979 67.8547 49.6332C67.9853 49.3954 68 49.1631 68 47.326C68 45.4888 67.9853 45.2565 67.8547 45.0187C67.5984 44.5524 67.3985 44.5042 64.9626 44.3216C63.4969 44.2118 62.7184 44.1233 62.6496 44.0587C62.5926 44.0052 62.4771 43.6987 62.3929 43.3778C62.1628 42.5016 61.7379 41.4683 61.171 40.4073C60.8914 39.8839 60.6625 39.4106 60.6625 39.3554C60.6625 39.3001 61.3154 38.5109 62.1132 37.6015C63.6755 35.8207 63.818 35.5898 63.6556 35.1028C63.5287 34.7222 60.9429 32.1525 60.455 31.922C59.8689 31.6451 59.7593 31.703 57.8104 33.3208C56.8464 34.1209 56.0148 34.7757 55.9623 34.7757C55.9097 34.7757 55.4264 34.5514 54.8881 34.2772C53.8343 33.7404 52.6046 33.2635 51.6878 33.0358C51.3371 32.9487 51.1016 32.8479 51.0798 32.7758C51.0602 32.7111 50.9693 31.7056 50.8776 30.541C50.6937 28.2056 50.6426 28.0064 50.1662 27.757C49.9226 27.6295 49.6846 27.6152 47.802 27.6152ZM48.0029 38.7173C49.8848 38.755 51.7544 39.381 53.3173 40.6013C56.0636 42.7456 57.2132 46.1957 56.3188 49.6092C56.0909 50.4789 55.3282 51.9361 54.7008 52.6998C53.2754 54.4351 51.2516 55.5498 48.946 55.8697C48.4413 55.9397 47.2201 55.9636 46.9343 55.9089C46.8692 55.8965 46.5497 55.8441 46.2243 55.7924C45.1198 55.6172 43.8764 55.1258 42.871 54.467C40.1196 52.664 38.5884 49.3577 39.0471 46.2095C39.3485 44.1409 40.4446 42.1396 41.9843 40.8464C43.7213 39.3875 45.87 38.6746 48.0029 38.7173ZM11.8841 44.639L22.5752 55.0723L12.3563 58.4424L8.53342 54.712L11.8841 44.639Z" fill="white"/>
</svg>
