
<svg width="842" height="1021" viewBox="0 0 842 1021" fill="none" xmlns="http://www.w3.org/2000/svg">
<path d="M237.254 794.73C244.324 791.458 251.469 785.062 258.539 775.542C265.609 766.023 272.456 755.536 279.005 744.083C285.554 732.63 291.433 721.326 296.568 710.17C301.777 699.014 305.722 690.164 308.401 683.619L540.818 139.818L770.779 689.346C781.124 713.888 790.947 733.894 800.25 749.438C809.552 764.981 818.781 776.806 828.083 784.987C830.241 786.623 832.474 788.408 834.632 790.268C836.791 792.201 839.246 793.689 842 794.73H701.27C708.935 789.301 714.368 782.905 717.642 775.542C720.917 768.179 722.554 760.445 722.554 752.264C722.554 744.083 720.917 733.597 717.642 720.805C714.368 708.013 708.935 692.841 701.27 675.439L656.245 569.98H365.78L315.843 684.438C309.815 699.684 305.35 712.773 302.373 723.705C299.396 734.638 297.908 743.86 297.908 751.52C297.908 756.949 299.098 763.345 301.554 770.708C304.01 778.071 309.889 785.582 319.118 793.168L322.392 794.804H237.254V794.73ZM368.235 563.287H655.501L513.878 225.568L368.235 563.287Z" fill="black" fill-opacity="0.05"/>
<path d="M390.115 0C193.42 0 33.936 159.377 33.936 355.94V664.134C33.936 860.697 193.42 1020.07 390.115 1020.07C586.81 1020.07 746.295 860.697 746.295 664.134V355.94C746.22 159.377 586.81 0 390.115 0ZM740.266 661.531C740.266 854.822 583.461 1011.45 390.115 1011.45C196.695 1011.45 39.9641 854.747 39.9641 661.531V358.469C39.9641 165.178 196.769 8.55268 390.115 8.55268C583.536 8.55268 740.266 165.253 740.266 358.469V661.531Z" fill="black" fill-opacity="0.05"/>
<path d="M418.47 944.737C407.53 943.547 396.441 943.398 385.278 942.803V866.201C380.664 865.159 376.05 864.118 371.361 863.151V942.282C371.436 942.357 371.436 942.357 371.436 942.431C330.578 942.208 307.433 949.571 297.908 952.174C296.419 952.545 294.261 954.702 294.484 955.743C294.782 957.305 296.494 959.239 298.056 959.834C303.191 961.619 308.401 963.329 313.759 964.296C345.314 969.651 377.166 969.948 408.944 967.866C423.605 966.899 438.117 964.37 452.629 961.916C452.703 961.916 452.778 961.916 452.852 961.842C458.731 960.578 458.88 951.579 453.001 950.314H452.927C441.466 947.86 429.931 946.001 418.47 944.737Z" fill="black" fill-opacity="0.05"/>
<path d="M0 139.52H124.358C108.506 153.13 99.1289 168.674 96.152 186.151C93.1752 203.628 91.6868 222.444 91.6868 242.599V617.132C91.6868 650.971 94.1427 683.248 99.0544 714.037C103.966 744.827 113.641 771.824 128.079 795.027C142.516 818.231 162.461 836.75 187.839 850.657C213.216 864.564 246.334 871.481 287.265 871.481C335.267 871.481 378.133 861.143 415.716 840.394C440.275 826.784 459.327 811.24 473.02 793.763C486.639 776.286 496.761 757.247 503.31 736.497C509.859 715.748 513.803 693.585 515.143 669.861C516.482 646.136 517.152 621.743 517.152 596.68V579.649C517.152 532.795 510.901 501.931 498.323 487.205C496.165 485.569 494.23 483.784 492.593 481.925C490.956 479.991 488.798 478.281 486.044 476.645H562.177C544.688 490.254 534.343 506.393 531.069 524.911C527.794 543.43 526.157 563.064 526.157 583.813V600.026C526.157 624.569 525.338 648.144 523.701 670.753C522.064 693.362 518.268 714.93 512.24 735.382C506.212 755.834 496.984 774.947 484.407 792.648C471.83 810.348 454.638 826.858 432.833 842.104C396.292 867.688 345.835 880.554 281.46 880.554C256.381 880.554 231.673 878.62 207.412 874.828C183.15 871.035 160.452 864.044 139.465 854.004C118.478 843.889 100.022 830.428 84.2446 813.546C68.393 796.664 55.8902 775.096 46.5876 748.917C35.6477 720.582 30.215 666.291 30.215 586.193V242.599C30.215 218.651 28.5777 199.166 25.3032 184.143C22.0286 169.12 16.5959 157.295 8.93053 148.594C7.81421 146.957 6.62348 145.321 5.2839 143.685C3.94432 141.975 2.15821 140.636 0 139.52Z" fill="black" fill-opacity="0.05"/>
<path d="M241.05 313.921C242.985 313.921 244.845 314.069 246.706 314.367V34.8801C242.092 33.8389 237.478 44.3252 232.789 43.3584V314.739C235.394 314.218 238.222 313.921 241.05 313.921Z" fill="black" fill-opacity="0.05"/>
<path d="M209.393 833.674C256.003 833.674 293.787 795.915 293.787 749.337C293.787 702.759 256.003 665 209.393 665C162.784 665 125 702.759 125 749.337C125 795.915 162.784 833.674 209.393 833.674Z" fill="#EA5B27"/>
</svg>
