<svg width="508" height="145" viewBox="0 0 508 145" fill="none" xmlns="http://www.w3.org/2000/svg">
<g filter="url(#filter0_d_291_109)">
<path d="M43.1211 113.852C43.8399 113.519 44.5662 112.868 45.285 111.9C46.0038 110.931 46.6999 109.864 47.3657 108.699C48.0315 107.534 48.6292 106.384 49.1513 105.249C49.6809 104.114 50.0819 103.214 50.3543 102.548L73.9833 47.2244L97.3627 103.13C98.4144 105.627 99.4131 107.663 100.359 109.244C101.305 110.825 102.243 112.028 103.189 112.861C103.408 113.027 103.635 113.209 103.854 113.398C104.074 113.594 104.324 113.746 104.603 113.852H90.2959C91.0752 113.299 91.6276 112.649 91.9605 111.9C92.2934 111.151 92.4598 110.364 92.4598 109.531C92.4598 108.699 92.2934 107.632 91.9605 106.331C91.6276 105.03 91.0752 103.486 90.2959 101.716L85.7184 90.9869H56.1878L51.1109 102.631C50.4981 104.182 50.0441 105.514 49.7415 106.626C49.4388 107.738 49.2875 108.676 49.2875 109.456C49.2875 110.008 49.4085 110.659 49.6582 111.408C49.9079 112.157 50.5056 112.921 51.4438 113.693L51.7767 113.859H43.1211V113.852ZM56.4375 90.3059H85.6427L71.2444 55.9481L56.4375 90.3059Z" fill="white"/>
<path d="M58.6617 33.0002C38.6644 33.0002 22.4502 49.2145 22.4502 69.2117V100.566C22.4502 120.563 38.6644 136.777 58.6617 136.777C78.659 136.777 94.8732 120.563 94.8732 100.566V69.2117C94.8656 49.2145 78.659 33.0002 58.6617 33.0002ZM94.2603 100.301C94.2603 119.965 78.3185 135.9 58.6617 135.9C38.9973 135.9 23.0631 119.958 23.0631 100.301V69.469C23.0631 49.8046 39.0049 33.8703 58.6617 33.8703C78.3261 33.8703 94.2603 49.8122 94.2603 69.469V100.301Z" fill="white"/>
<path d="M61.5443 129.113C60.4321 128.992 59.3047 128.977 58.1698 128.916V121.123C57.7007 121.017 57.2316 120.911 56.7549 120.813V128.863C56.7625 128.871 56.7625 128.871 56.7625 128.878C52.6087 128.856 50.2556 129.605 49.2872 129.869C49.1358 129.907 48.9164 130.127 48.9391 130.233C48.9694 130.391 49.1434 130.588 49.3023 130.649C49.8244 130.83 50.354 131.004 50.8988 131.103C54.1068 131.647 57.3451 131.678 60.5758 131.466C62.0664 131.367 63.5418 131.11 65.0172 130.861C65.0247 130.861 65.0323 130.861 65.0399 130.853C65.6376 130.724 65.6527 129.809 65.055 129.68H65.0474C63.8822 129.431 62.7095 129.241 61.5443 129.113Z" fill="white"/>
<path d="M19 47.1941H31.643C30.0314 48.5787 29.0781 50.16 28.7754 51.9381C28.4728 53.7161 28.3215 55.6303 28.3215 57.6807V95.7838C28.3215 99.2264 28.5712 102.51 29.0705 105.642C29.5699 108.775 30.5535 111.521 32.0213 113.882C33.4891 116.243 35.5169 118.127 38.0969 119.541C40.677 120.956 44.0439 121.66 48.2053 121.66C53.0854 121.66 57.4435 120.608 61.2644 118.497C63.7612 117.113 65.6982 115.531 67.0903 113.753C68.4749 111.975 69.5039 110.038 70.1697 107.927C70.8356 105.816 71.2366 103.562 71.3727 101.148C71.5089 98.7346 71.577 96.2529 71.577 93.7031V91.9704C71.577 87.2038 70.9415 84.0638 69.6628 82.5657C69.4434 82.3993 69.2467 82.2177 69.0802 82.0286C68.9138 81.8318 68.6943 81.6578 68.4144 81.4914H76.1545C74.3765 82.876 73.3248 84.5178 72.9919 86.4018C72.659 88.2857 72.4925 90.2832 72.4925 92.3941V94.0436C72.4925 96.5404 72.4093 98.9389 72.2429 101.239C72.0764 103.539 71.6905 105.733 71.0777 107.814C70.4648 109.895 69.5266 111.839 68.2479 113.64C66.9693 115.441 65.2215 117.12 63.0046 118.671C59.2896 121.274 54.1598 122.583 47.6151 122.583C45.0653 122.583 42.5534 122.386 40.0868 122C37.6202 121.615 35.3126 120.903 33.1789 119.882C31.0453 118.853 29.1689 117.483 27.5649 115.766C25.9533 114.048 24.6822 111.854 23.7364 109.191C22.6242 106.308 22.0718 100.785 22.0718 92.6363V57.6807C22.0718 55.2445 21.9054 53.2621 21.5725 51.7338C21.2396 50.2054 20.6872 49.0024 19.9079 48.1172C19.7944 47.9507 19.6734 47.7842 19.5372 47.6178C19.401 47.4438 19.2194 47.3076 19 47.1941Z" fill="white"/>
<path d="M43.5068 64.9365C43.7036 64.9365 43.8927 64.9517 44.0819 64.9819V36.5484C43.6128 36.4425 43.1437 37.5093 42.667 37.411V65.0198C42.9318 64.9668 43.2193 64.9365 43.5068 64.9365Z" fill="white"/>
<path d="M43.121 83.7764C47.8596 83.7764 51.701 79.935 51.701 75.1964C51.701 70.4578 47.8596 66.6165 43.121 66.6165C38.3824 66.6165 34.541 70.4578 34.541 75.1964C34.541 79.935 38.3824 83.7764 43.121 83.7764Z" fill="#EA5B27"/>
<path d="M159.533 48.9648V65.913C159.533 76.899 152.655 84.5635 142.691 84.5635C132.726 84.5635 125.849 76.899 125.849 65.913V48.9648H129.889V65.8524C129.889 74.3643 134.898 80.9393 142.683 80.9393C150.408 80.9393 155.538 74.7199 155.538 65.8524V48.9648H159.533Z" fill="white"/>
<path d="M187.838 60.8662V64.1272H185.787C184.94 62.8032 182.708 61.8952 180.476 61.8952C175.709 61.8952 172.569 66.3593 172.569 72.8207V90.0185H168.824V59.6557H172.448V64.3013C174.136 60.6771 177.155 58.5056 181.021 58.5056C183.548 58.5132 186.506 59.4741 187.838 60.8662Z" fill="white"/>
<path d="M263.514 74.8033V90.0112H259.95V84.2231C257.537 88.5661 253.012 91.2218 247.398 91.2218C237.925 91.2218 231.343 84.5258 231.343 74.8033C231.343 65.27 237.978 58.4453 247.398 58.4453C256.818 58.4529 263.514 65.27 263.514 74.8033ZM235.088 74.8033C235.088 82.3467 240.218 87.7792 247.398 87.7792C254.578 87.7792 259.769 82.3467 259.769 74.8033C259.769 67.3204 254.578 61.8879 247.398 61.8879C240.218 61.8879 235.088 67.3204 235.088 74.8033Z" fill="white"/>
<path d="M273.955 48.2537C275.582 48.2537 276.672 49.4037 276.672 50.9699C276.672 52.5966 275.582 53.6861 273.955 53.6861C272.329 53.6861 271.239 52.5966 271.239 50.9699C271.239 49.3961 272.329 48.2537 273.955 48.2537ZM272.087 59.6558H275.832V90.0111H272.087V59.6558Z" fill="white"/>
<path d="M312.467 72.0265V90.0112H308.722V72.6318C308.722 66.2914 304.803 61.8879 298.946 61.8879C293.211 61.8879 289.11 66.0493 289.11 72.087V90.0112H285.365V59.6559H289.11V64.241C291.04 60.6168 294.725 58.4453 299.31 58.4453C307.156 58.4529 312.467 63.9989 312.467 72.0265Z" fill="white"/>
<path d="M357.97 48.3445L373.239 87.6581V90.0112H369.796L366.353 81.015H343.784L340.341 90.0112H336.898V87.6581L352.227 48.3445H357.97ZM344.873 77.7616H365.332L355.133 51.2045L344.873 77.7616Z" fill="white"/>
<path d="M399.312 60.8662V64.1272H397.261C396.414 62.8032 394.182 61.8952 391.95 61.8952C387.183 61.8952 384.043 66.3593 384.043 72.8207V90.0185H380.298V59.6557H383.922V64.3013C385.609 60.6771 388.628 58.5056 392.494 58.5056C395.029 58.5132 397.987 59.4741 399.312 60.8662Z" fill="white"/>
<path d="M402.572 59.6555H407.702V53.02H411.447V59.6555H419.475V62.7955H411.447V82.649C411.447 85.6679 413.256 87.7183 416.032 87.7788C417.243 87.7788 418.809 87.5367 420.02 87.1735V90.4951C418.749 90.9188 416.88 91.2214 415.193 91.2214C410.729 91.2214 407.71 87.8999 407.71 82.9516V62.7955H402.58V59.6555H402.572Z" fill="white"/>
<path d="M130.199 121.645V103.426H142.593V104.985H131.886V111.438H141.556V112.944H131.886V120.102H142.85V121.66H130.199V121.645ZM135.382 101.035L138.492 97.9783H139.604V98.6517L136.366 101.686H135.382V101.035Z" fill="white"/>
<path d="M146.118 102.646H147.722V121.653H146.118V102.646Z" fill="white"/>
<path d="M164.474 114.934C164.474 115.448 164.421 116.129 164.315 116.591H152.701C153.298 119.057 155.19 120.684 157.649 120.684C159.616 120.684 161.561 119.67 162.264 118.271H163.641V118.997C162.711 120.835 160.191 122.16 157.603 122.16C153.737 122.16 150.915 119.103 150.915 114.904C150.915 110.939 153.737 108.087 157.656 108.087C161.598 108.087 164.474 110.939 164.474 114.934ZM152.527 115.221H162.817C162.998 112.006 160.713 109.569 157.581 109.569C154.622 109.569 152.527 111.824 152.527 114.911V115.221ZM156.877 106.225L159.964 102.646H161.107V103.32L157.868 106.868H156.885V106.225H156.877Z" fill="white"/>
<path d="M180.681 115.115V121.698C180.681 125.458 177.904 128.129 174.045 128.129C170.701 128.129 167.826 126.079 167.198 123.226V122.424H168.704C169.014 124.861 171.193 126.654 173.992 126.654C176.951 126.654 179.077 124.55 179.077 121.652V119.004C177.987 120.873 176.073 122.091 173.735 122.091C169.77 122.091 166.918 119.133 166.918 115.115C166.918 111.022 169.793 108.086 173.811 108.086C177.806 108.086 180.681 111.015 180.681 115.115ZM168.522 115.115C168.522 118.301 170.754 120.586 173.811 120.586C176.92 120.586 179.099 118.354 179.099 115.115C179.099 111.9 176.92 109.569 173.811 109.569C170.724 109.569 168.522 111.9 168.522 115.115Z" fill="white"/>
<path d="M197.454 115.116V121.645H195.926V119.156C194.889 121.025 192.945 122.16 190.531 122.16C186.461 122.16 183.639 119.285 183.639 115.108C183.639 111.015 186.491 108.079 190.531 108.079C194.579 108.087 197.454 111.015 197.454 115.116ZM185.243 115.116C185.243 118.354 187.444 120.692 190.531 120.692C193.618 120.692 195.843 118.361 195.843 115.116C195.843 111.9 193.611 109.57 190.531 109.57C187.452 109.57 185.243 111.9 185.243 115.116Z" fill="white"/>
<path d="M212.678 113.92V121.645H211.074V114.177C211.074 111.453 209.386 109.562 206.874 109.562C204.408 109.562 202.645 111.347 202.645 113.943V121.645H201.041V108.608H202.645V110.576C203.477 109.017 205.059 108.086 207.026 108.086C210.393 108.086 212.678 110.47 212.678 113.92Z" fill="white"/>
<path d="M228.513 112.649H227.242C226.622 110.833 224.647 109.509 222.521 109.509C219.434 109.509 217.209 111.869 217.209 115.108C217.209 118.376 219.441 120.737 222.521 120.737C224.647 120.737 226.614 119.413 227.265 117.574H228.513V118.482C227.658 120.631 225.169 122.167 222.476 122.167C218.458 122.167 215.605 119.239 215.605 115.115C215.605 111.022 218.481 108.086 222.528 108.086C225.222 108.086 227.711 109.645 228.521 111.847V112.649H228.513Z" fill="white"/>
<path d="M244.516 114.934C244.516 115.448 244.463 116.129 244.357 116.591H232.743C233.34 119.057 235.232 120.684 237.691 120.684C239.658 120.684 241.603 119.67 242.306 118.27H243.683V118.997C242.753 120.835 240.233 122.159 237.645 122.159C233.779 122.159 230.957 119.103 230.957 114.904C230.957 110.939 233.779 108.086 237.698 108.086C241.64 108.086 244.516 110.939 244.516 114.934ZM232.561 115.221H242.851C243.033 112.006 240.748 109.569 237.615 109.569C234.657 109.569 232.561 111.824 232.561 114.911V115.221Z" fill="white"/>
<path d="M255.767 121.645V103.426H267.093V104.985H257.499V112.528H265.565V114.003H257.499V121.653H255.767V121.645Z" fill="white"/>
<path d="M275.061 122.167C271.013 122.167 268.168 119.239 268.168 115.115C268.168 111.022 271.02 108.086 275.061 108.086C279.109 108.086 281.984 111.015 281.984 115.115C281.984 119.239 279.101 122.167 275.061 122.167ZM275.061 109.569C271.974 109.569 269.772 111.9 269.772 115.115C269.772 118.354 271.974 120.692 275.061 120.692C278.148 120.692 280.372 118.361 280.372 115.115C280.372 111.9 278.14 109.569 275.061 109.569Z" fill="white"/>
<path d="M296.836 113.92V121.645H295.232V114.177C295.232 111.453 293.545 109.562 291.033 109.562C288.566 109.562 286.803 111.347 286.803 113.943V121.645H285.199V108.608H286.803V110.576C287.636 109.017 289.217 108.086 291.184 108.086C294.559 108.086 296.836 110.47 296.836 113.92Z" fill="white"/>
<path d="M312.679 112.649H311.408C310.788 110.833 308.813 109.509 306.687 109.509C303.6 109.509 301.376 111.869 301.376 115.108C301.376 118.376 303.608 120.737 306.687 120.737C308.813 120.737 310.78 119.413 311.431 117.574H312.679V118.482C311.824 120.631 309.335 122.167 306.642 122.167C302.624 122.167 299.771 119.239 299.771 115.115C299.771 111.022 302.647 108.086 306.694 108.086C309.388 108.086 311.877 109.645 312.687 111.847V112.649H312.679Z" fill="white"/>
<path d="M314.026 108.608H316.228V105.756H317.832V108.608H321.282V109.955H317.832V118.482C317.832 119.776 318.611 120.661 319.799 120.684C320.321 120.684 320.995 120.578 321.509 120.427V121.857C320.964 122.038 320.162 122.167 319.436 122.167C317.514 122.167 316.22 120.744 316.22 118.618V109.963H314.019V108.608H314.026Z" fill="white"/>
<path d="M325.329 103.706C326.033 103.706 326.494 104.197 326.494 104.871C326.494 105.574 326.025 106.036 325.329 106.036C324.626 106.036 324.164 105.567 324.164 104.871C324.164 104.197 324.633 103.706 325.329 103.706ZM324.527 108.608H326.139V121.645H324.527V108.608Z" fill="white"/>
<path d="M336.354 122.167C332.306 122.167 329.461 119.239 329.461 115.115C329.461 111.022 332.313 108.086 336.354 108.086C340.394 108.086 343.277 111.015 343.277 115.115C343.277 119.239 340.394 122.167 336.354 122.167ZM336.354 109.569C333.267 109.569 331.065 111.9 331.065 115.115C331.065 118.354 333.267 120.692 336.354 120.692C339.441 120.692 341.665 118.361 341.665 115.115C341.665 111.9 339.441 109.569 336.354 109.569Z" fill="white"/>
<path d="M358.129 113.92V121.645H356.517V114.177C356.517 111.453 354.83 109.562 352.318 109.562C349.851 109.562 348.088 111.347 348.088 113.943V121.645H346.484V108.608H348.088V110.576C348.921 109.017 350.502 108.086 352.469 108.086C355.851 108.086 358.129 110.47 358.129 113.92Z" fill="white"/>
<path d="M373.48 113.92V121.645H371.876V114.177C371.876 111.453 370.189 109.562 367.677 109.562C365.211 109.562 363.448 111.347 363.448 113.943V121.645H361.844V108.608H363.448V110.576C364.28 109.017 365.861 108.086 367.829 108.086C371.195 108.086 373.48 110.47 373.48 113.92Z" fill="white"/>
<path d="M389.967 114.934C389.967 115.448 389.914 116.129 389.808 116.591H378.194C378.792 119.057 380.683 120.684 383.142 120.684C385.109 120.684 387.054 119.67 387.757 118.27H389.134V118.997C388.204 120.835 385.684 122.159 383.097 122.159C379.23 122.159 376.408 119.103 376.408 114.904C376.408 110.939 379.23 108.086 383.15 108.086C387.092 108.086 389.967 110.939 389.967 114.934ZM378.02 115.221H388.31C388.491 112.006 386.206 109.569 383.074 109.569C380.116 109.569 378.02 111.824 378.02 114.911V115.221Z" fill="white"/>
<path d="M393.19 102.646H394.794V121.653H393.19V102.646Z" fill="white"/>
<path d="M398.759 102.646H400.363V121.653H398.759V102.646Z" fill="white"/>
<path d="M417.114 114.934C417.114 115.448 417.061 116.129 416.955 116.591H405.341C405.939 119.057 407.83 120.684 410.289 120.684C412.257 120.684 414.201 119.67 414.905 118.27H416.282V118.997C415.351 120.835 412.832 122.159 410.244 122.159C406.378 122.159 403.556 119.103 403.556 114.904C403.556 110.939 406.378 108.086 410.297 108.086C414.239 108.086 417.114 110.939 417.114 114.934ZM405.167 115.221H415.457C415.639 112.006 413.354 109.569 410.221 109.569C407.263 109.569 405.167 111.824 405.167 114.911V115.221Z" fill="white"/>
<path d="M150.446 87.0603C145.998 90.4878 140.27 90.4424 135.693 87.083C134.83 88.0136 134.172 89.0653 133.718 90.1851C139.4 94.3389 146.603 94.3314 152.338 89.9581C151.899 88.9367 151.286 87.9607 150.484 87.0981C150.469 87.0906 150.454 87.0754 150.446 87.0603Z" fill="white"/>
<path d="M209.621 58.4527C204.188 58.4527 199.724 61.1085 197.371 65.2698V48.0493H193.626V75.1058C193.626 76.3391 193.747 77.5194 193.966 78.6543C193.966 78.6543 193.966 78.6543 193.974 78.6543L193.966 78.6619C195.313 85.5698 200.61 90.4499 207.79 91.1384L207.797 91.1309C207.797 91.1309 207.797 91.1309 207.797 91.1384C208.372 91.1914 208.963 91.2216 209.56 91.2216C218.912 91.2216 225.676 84.344 225.676 74.8032C225.676 65.3304 218.92 58.4527 209.621 58.4527ZM209.621 87.7791C209.197 87.7791 208.781 87.7564 208.372 87.7185C208.372 87.7412 208.372 87.7564 208.372 87.7791C208.372 87.7866 208.372 87.7942 208.372 87.8018C208.372 87.7942 208.365 87.7942 208.365 87.7866C208.365 87.7639 208.365 87.7488 208.365 87.7261C202.766 87.2192 198.597 83.3075 197.523 77.7237C197.515 77.7237 197.515 77.7237 197.507 77.7237C197.515 77.7237 197.523 77.7237 197.53 77.7237C197.349 76.793 197.25 75.8246 197.25 74.8107C197.25 67.3278 202.441 61.8953 209.621 61.8953C216.741 61.8953 221.991 67.3278 221.931 74.8107C221.931 82.3466 216.68 87.7791 209.621 87.7791Z" fill="white"/>
</g>
<defs>
<filter id="filter0_d_291_109" x="-4" y="0" width="538.01" height="145.15" filterUnits="userSpaceOnUse" color-interpolation-filters="sRGB">
<feFlood flood-opacity="0" result="BackgroundImageFix"/>
<feColorMatrix in="SourceAlpha" type="matrix" values="0 0 0 0 0 0 0 0 0 0 0 0 0 0 0 0 0 0 127 0" result="hardAlpha"/>
<feOffset dy="4"/>
<feGaussianBlur stdDeviation="2"/>
<feComposite in2="hardAlpha" operator="out"/>
<feColorMatrix type="matrix" values="0 0 0 0 0 0 0 0 0 0 0 0 0 0 0 0 0 0 0.25 0"/>
<feBlend mode="normal" in2="BackgroundImageFix" result="effect1_dropShadow_291_109"/>
<feBlend mode="normal" in="SourceGraphic" in2="effect1_dropShadow_291_109" result="shape"/>
</filter>
</defs>
</svg>
