<svg width="530" height="138" viewBox="0 0 530 138" fill="none" xmlns="http://www.w3.org/2000/svg">
<path d="M43.1208 113.852C43.8396 113.519 44.566 112.868 45.2848 111.9C46.0035 110.931 46.6996 109.865 47.3655 108.699C48.0313 107.534 48.629 106.384 49.1511 105.249C49.6807 104.114 50.0817 103.214 50.3541 102.548L73.9831 47.2246L97.3624 103.131C98.4141 105.628 99.4129 107.663 100.359 109.244C101.304 110.825 102.243 112.029 103.188 112.861C103.408 113.027 103.635 113.209 103.854 113.398C104.074 113.595 104.323 113.746 104.603 113.852H90.2957C91.075 113.3 91.6273 112.649 91.9602 111.9C92.2931 111.151 92.4596 110.364 92.4596 109.532C92.4596 108.699 92.2931 107.633 91.9602 106.331C91.6273 105.03 91.075 103.486 90.2957 101.716L85.7182 90.9871H56.1876L51.1107 102.631C50.4978 104.182 50.0439 105.514 49.7412 106.626C49.4386 107.739 49.2872 108.677 49.2872 109.456C49.2872 110.008 49.4083 110.659 49.658 111.408C49.9077 112.157 50.5054 112.921 51.4436 113.693L51.7765 113.86H43.1208V113.852ZM56.4372 90.3061H85.6425L71.2442 55.9484L56.4372 90.3061Z" fill="white"/>
<path d="M58.6616 33C38.6643 33 22.4501 49.2142 22.4501 69.2115V100.566C22.4501 120.563 38.6643 136.777 58.6616 136.777C78.6589 136.777 94.8731 120.563 94.8731 100.566V69.2115C94.8656 49.2142 78.6589 33 58.6616 33ZM94.2603 100.301C94.2603 119.965 78.3184 135.899 58.6616 135.899C38.9973 135.899 23.063 119.958 23.063 100.301V69.4687C23.063 49.8044 39.0048 33.8701 58.6616 33.8701C78.326 33.8701 94.2603 49.8119 94.2603 69.4687V100.301Z" fill="white"/>
<path d="M61.5444 129.113C60.4321 128.991 59.3048 128.976 58.1699 128.916V121.123C57.7008 121.017 57.2317 120.911 56.755 120.812V128.863C56.7626 128.87 56.7626 128.87 56.7626 128.878C52.6088 128.855 50.2557 129.604 49.2872 129.869C49.1359 129.907 48.9165 130.126 48.9392 130.232C48.9695 130.391 49.1435 130.588 49.3024 130.648C49.8244 130.83 50.3541 131.004 50.8988 131.102C54.1069 131.647 57.3452 131.677 60.5759 131.466C62.0664 131.367 63.5418 131.11 65.0172 130.86C65.0248 130.86 65.0323 130.86 65.0399 130.853C65.6376 130.724 65.6528 129.809 65.055 129.68H65.0475C63.8823 129.43 62.7095 129.241 61.5444 129.113Z" fill="white"/>
<path d="M19 47.1938H31.643C30.0314 48.5784 29.0781 50.1598 28.7754 51.9378C28.4728 53.7159 28.3215 55.6301 28.3215 57.6805V95.7835C28.3215 99.2261 28.5712 102.51 29.0705 105.642C29.5699 108.775 30.5535 111.521 32.0213 113.882C33.4891 116.242 35.5169 118.126 38.0969 119.541C40.677 120.956 44.0439 121.66 48.2053 121.66C53.0854 121.66 57.4435 120.608 61.2644 118.497C63.7612 117.112 65.6982 115.531 67.0903 113.753C68.4749 111.975 69.5039 110.038 70.1697 107.927C70.8356 105.816 71.2366 103.562 71.3727 101.148C71.5089 98.7343 71.577 96.2526 71.577 93.7028V91.9702C71.577 87.2035 70.9415 84.0636 69.6628 82.5655C69.4434 82.399 69.2467 82.2175 69.0802 82.0283C68.9138 81.8316 68.6943 81.6576 68.4144 81.4911H76.1545C74.3765 82.8757 73.3248 84.5176 72.9919 86.4015C72.659 88.2855 72.4925 90.283 72.4925 92.3939V94.0433C72.4925 96.5401 72.4093 98.9386 72.2429 101.239C72.0764 103.539 71.6905 105.733 71.0777 107.814C70.4648 109.894 69.5266 111.839 68.2479 113.64C66.9693 115.44 65.2215 117.12 63.0046 118.671C59.2896 121.274 54.1598 122.583 47.6151 122.583C45.0653 122.583 42.5534 122.386 40.0868 122C37.6202 121.614 35.3126 120.903 33.1789 119.882C31.0453 118.853 29.1689 117.483 27.5649 115.766C25.9533 114.048 24.6822 111.854 23.7364 109.191C22.6242 106.308 22.0718 100.785 22.0718 92.636V57.6805C22.0718 55.2442 21.9054 53.2619 21.5725 51.7335C21.2396 50.2052 20.6872 49.0022 19.9079 48.1169C19.7944 47.9505 19.6734 47.784 19.5372 47.6176C19.401 47.4435 19.2194 47.3073 19 47.1938Z" fill="white"/>
<path d="M43.5067 64.9365C43.7034 64.9365 43.8926 64.9517 44.0817 64.9819V36.5484C43.6126 36.4425 43.1435 37.5093 42.6669 37.411V65.0198C42.9317 64.9668 43.2192 64.9365 43.5067 64.9365Z" fill="white"/>
<path d="M43.1208 83.7762C47.8594 83.7762 51.7008 79.9348 51.7008 75.1962C51.7008 70.4576 47.8594 66.6162 43.1208 66.6162C38.3822 66.6162 34.5408 70.4576 34.5408 75.1962C34.5408 79.9348 38.3822 83.7762 43.1208 83.7762Z" fill="#EA5B27"/>
<path d="M159.533 48.9648V65.913C159.533 76.899 152.656 84.5635 142.691 84.5635C132.726 84.5635 125.849 76.899 125.849 65.913V48.9648H129.889V65.8524C129.889 74.3643 134.898 80.9393 142.684 80.9393C150.409 80.9393 155.538 74.7199 155.538 65.8524V48.9648H159.533Z" fill="white"/>
<path d="M187.838 60.866V64.127H185.788C184.94 62.8029 182.708 61.895 180.476 61.895C175.71 61.895 172.57 66.359 172.57 72.8205V90.0183H168.824V59.6554H172.449V64.301C174.136 60.6769 177.155 58.5054 181.021 58.5054C183.548 58.5129 186.507 59.4738 187.838 60.866Z" fill="white"/>
<path d="M263.515 74.8033V90.0112H259.951V84.2231C257.537 88.5661 253.013 91.2218 247.399 91.2218C237.926 91.2218 231.343 84.5258 231.343 74.8033C231.343 65.27 237.979 58.4453 247.399 58.4453C256.819 58.4529 263.515 65.27 263.515 74.8033ZM235.089 74.8033C235.089 82.3467 240.218 87.7792 247.399 87.7792C254.579 87.7792 259.769 82.3467 259.769 74.8033C259.769 67.3204 254.579 61.8879 247.399 61.8879C240.218 61.8879 235.089 67.3204 235.089 74.8033Z" fill="white"/>
<path d="M273.956 48.2534C275.583 48.2534 276.672 49.4035 276.672 50.9697C276.672 52.5964 275.583 53.6859 273.956 53.6859C272.329 53.6859 271.24 52.5964 271.24 50.9697C271.24 49.3959 272.329 48.2534 273.956 48.2534ZM272.087 59.6556H275.832V90.0109H272.087V59.6556Z" fill="white"/>
<path d="M312.467 72.0265V90.0112H308.722V72.6318C308.722 66.2914 304.803 61.8879 298.947 61.8879C293.212 61.8879 289.111 66.0493 289.111 72.087V90.0112H285.366V59.6559H289.111V64.241C291.04 60.6168 294.725 58.4453 299.31 58.4453C307.156 58.4529 312.467 63.9989 312.467 72.0265Z" fill="white"/>
<path d="M357.97 48.3447L373.239 87.6583V90.0114H369.796L366.353 81.0153H343.784L340.341 90.0114H336.898V87.6583L352.227 48.3447H357.97ZM344.873 77.7618H365.332L355.133 51.2047L344.873 77.7618Z" fill="white"/>
<path d="M399.311 60.866V64.127H397.261C396.414 62.8029 394.182 61.895 391.95 61.895C387.183 61.895 384.043 66.359 384.043 72.8205V90.0183H380.298V59.6554H383.922V64.301C385.609 60.6769 388.628 58.5054 392.494 58.5054C395.029 58.5129 397.987 59.4738 399.311 60.866Z" fill="white"/>
<path d="M402.573 59.6555H407.702V53.02H411.448V59.6555H419.475V62.7955H411.448V82.649C411.448 85.6679 413.256 87.7183 416.033 87.7788C417.243 87.7788 418.809 87.5367 420.02 87.1735V90.4951C418.749 90.9188 416.88 91.2214 415.193 91.2214C410.729 91.2214 407.71 87.8999 407.71 82.9516V62.7955H402.58V59.6555H402.573Z" fill="white"/>
<path d="M130.199 121.645V103.426H142.593V104.985H131.887V111.439H141.556V112.944H131.887V120.102H142.85V121.661H130.199V121.645ZM135.382 101.035L138.492 97.9785H139.604V98.6519L136.366 101.686H135.382V101.035Z" fill="white"/>
<path d="M146.119 102.646H147.723V121.653H146.119V102.646Z" fill="white"/>
<path d="M164.474 114.934C164.474 115.448 164.421 116.129 164.315 116.591H152.701C153.299 119.057 155.19 120.684 157.649 120.684C159.617 120.684 161.561 119.67 162.265 118.271H163.642V118.997C162.711 120.835 160.192 122.16 157.604 122.16C153.738 122.16 150.915 119.103 150.915 114.904C150.915 110.939 153.738 108.087 157.657 108.087C161.599 108.087 164.474 110.939 164.474 114.934ZM152.527 115.221H162.817C162.999 112.006 160.714 109.569 157.581 109.569C154.623 109.569 152.527 111.824 152.527 114.911V115.221ZM156.878 106.225L159.965 102.646H161.107V103.32L157.869 106.868H156.885V106.225H156.878Z" fill="white"/>
<path d="M180.681 115.115V121.698C180.681 125.458 177.904 128.129 174.045 128.129C170.701 128.129 167.826 126.079 167.198 123.226V122.424H168.703C169.014 124.861 171.193 126.654 173.992 126.654C176.951 126.654 179.077 124.55 179.077 121.652V119.004C177.987 120.873 176.073 122.091 173.735 122.091C169.77 122.091 166.918 119.133 166.918 115.115C166.918 111.022 169.793 108.086 173.811 108.086C177.806 108.086 180.681 111.015 180.681 115.115ZM168.522 115.115C168.522 118.301 170.754 120.586 173.811 120.586C176.92 120.586 179.099 118.354 179.099 115.115C179.099 111.9 176.92 109.569 173.811 109.569C170.724 109.569 168.522 111.9 168.522 115.115Z" fill="white"/>
<path d="M197.455 115.116V121.645H195.926V119.156C194.89 121.025 192.945 122.16 190.532 122.16C186.461 122.16 183.639 119.285 183.639 115.108C183.639 111.015 186.491 108.079 190.532 108.079C194.58 108.087 197.455 111.015 197.455 115.116ZM185.243 115.116C185.243 118.354 187.445 120.692 190.532 120.692C193.619 120.692 195.843 118.361 195.843 115.116C195.843 111.9 193.611 109.57 190.532 109.57C187.452 109.57 185.243 111.9 185.243 115.116Z" fill="white"/>
<path d="M212.678 113.92V121.645H211.074V114.177C211.074 111.453 209.387 109.562 206.875 109.562C204.408 109.562 202.645 111.347 202.645 113.943V121.645H201.041V108.608H202.645V110.576C203.477 109.017 205.059 108.086 207.026 108.086C210.393 108.086 212.678 110.47 212.678 113.92Z" fill="white"/>
<path d="M228.514 112.649H227.243C226.622 110.833 224.647 109.509 222.521 109.509C219.434 109.509 217.21 111.869 217.21 115.108C217.21 118.376 219.442 120.737 222.521 120.737C224.647 120.737 226.615 119.413 227.265 117.574H228.514V118.482C227.659 120.631 225.169 122.167 222.476 122.167C218.458 122.167 215.606 119.239 215.606 115.115C215.606 111.022 218.481 108.086 222.529 108.086C225.222 108.086 227.712 109.645 228.521 111.847V112.649H228.514Z" fill="white"/>
<path d="M244.516 114.934C244.516 115.448 244.463 116.129 244.357 116.591H232.743C233.341 119.057 235.232 120.684 237.691 120.684C239.659 120.684 241.603 119.67 242.307 118.27H243.684V118.997C242.753 120.835 240.234 122.159 237.646 122.159C233.78 122.159 230.958 119.103 230.958 114.904C230.958 110.939 233.78 108.086 237.699 108.086C241.641 108.086 244.516 110.939 244.516 114.934ZM232.562 115.221H242.852C243.033 112.006 240.748 109.569 237.616 109.569C234.657 109.569 232.562 111.824 232.562 114.911V115.221Z" fill="white"/>
<path d="M255.767 121.646V103.426H267.093V104.985H257.5V112.528H265.565V114.004H257.5V121.653H255.767V121.646Z" fill="white"/>
<path d="M275.061 122.167C271.013 122.167 268.168 119.239 268.168 115.115C268.168 111.022 271.02 108.086 275.061 108.086C279.108 108.086 281.984 111.015 281.984 115.115C281.984 119.239 279.101 122.167 275.061 122.167ZM275.061 109.569C271.974 109.569 269.772 111.9 269.772 115.115C269.772 118.354 271.974 120.692 275.061 120.692C278.147 120.692 280.372 118.361 280.372 115.115C280.372 111.9 278.14 109.569 275.061 109.569Z" fill="white"/>
<path d="M296.836 113.92V121.645H295.232V114.177C295.232 111.453 293.545 109.562 291.033 109.562C288.566 109.562 286.803 111.347 286.803 113.943V121.645H285.199V108.608H286.803V110.576C287.635 109.017 289.217 108.086 291.184 108.086C294.558 108.086 296.836 110.47 296.836 113.92Z" fill="white"/>
<path d="M312.679 112.649H311.408C310.788 110.833 308.813 109.509 306.687 109.509C303.6 109.509 301.376 111.869 301.376 115.108C301.376 118.376 303.608 120.737 306.687 120.737C308.813 120.737 310.78 119.413 311.431 117.574H312.679V118.482C311.824 120.631 309.335 122.167 306.642 122.167C302.624 122.167 299.771 119.239 299.771 115.115C299.771 111.022 302.647 108.086 306.694 108.086C309.388 108.086 311.877 109.645 312.687 111.847V112.649H312.679Z" fill="white"/>
<path d="M314.026 108.609H316.228V105.756H317.832V108.609H321.282V109.956H317.832V118.483C317.832 119.776 318.611 120.662 319.799 120.684C320.321 120.684 320.995 120.578 321.509 120.427V121.857C320.964 122.039 320.162 122.167 319.436 122.167C317.514 122.167 316.22 120.745 316.22 118.619V109.963H314.019V108.609H314.026Z" fill="white"/>
<path d="M325.33 103.706C326.034 103.706 326.495 104.198 326.495 104.871C326.495 105.575 326.026 106.036 325.33 106.036C324.626 106.036 324.165 105.567 324.165 104.871C324.165 104.198 324.634 103.706 325.33 103.706ZM324.528 108.609H326.139V121.645H324.528V108.609Z" fill="white"/>
<path d="M336.354 122.167C332.306 122.167 329.461 119.239 329.461 115.115C329.461 111.022 332.313 108.086 336.354 108.086C340.394 108.086 343.277 111.015 343.277 115.115C343.277 119.239 340.394 122.167 336.354 122.167ZM336.354 109.569C333.267 109.569 331.065 111.9 331.065 115.115C331.065 118.354 333.267 120.692 336.354 120.692C339.441 120.692 341.665 118.361 341.665 115.115C341.665 111.9 339.441 109.569 336.354 109.569Z" fill="white"/>
<path d="M358.129 113.92V121.645H356.517V114.177C356.517 111.453 354.83 109.562 352.318 109.562C349.852 109.562 348.089 111.347 348.089 113.943V121.645H346.485V108.608H348.089V110.576C348.921 109.017 350.502 108.086 352.47 108.086C355.852 108.086 358.129 110.47 358.129 113.92Z" fill="white"/>
<path d="M373.481 113.92V121.645H371.877V114.177C371.877 111.453 370.189 109.562 367.678 109.562C365.211 109.562 363.448 111.347 363.448 113.943V121.645H361.844V108.608H363.448V110.576C364.28 109.017 365.862 108.086 367.829 108.086C371.196 108.086 373.481 110.47 373.481 113.92Z" fill="white"/>
<path d="M389.967 114.934C389.967 115.448 389.914 116.129 389.808 116.591H378.194C378.792 119.057 380.684 120.684 383.143 120.684C385.11 120.684 387.054 119.67 387.758 118.27H389.135V118.997C388.204 120.835 385.685 122.159 383.097 122.159C379.231 122.159 376.409 119.103 376.409 114.904C376.409 110.939 379.231 108.086 383.15 108.086C387.092 108.086 389.967 110.939 389.967 114.934ZM378.02 115.221H388.31C388.492 112.006 386.207 109.569 383.075 109.569C380.116 109.569 378.02 111.824 378.02 114.911V115.221Z" fill="white"/>
<path d="M393.191 102.646H394.795V121.653H393.191V102.646Z" fill="white"/>
<path d="M398.759 102.646H400.363V121.653H398.759V102.646Z" fill="white"/>
<path d="M417.115 114.934C417.115 115.448 417.062 116.129 416.956 116.591H405.342C405.939 119.057 407.831 120.684 410.29 120.684C412.257 120.684 414.202 119.67 414.905 118.27H416.282V118.997C415.352 120.835 412.832 122.159 410.245 122.159C406.378 122.159 403.556 119.103 403.556 114.904C403.556 110.939 406.378 108.086 410.298 108.086C414.239 108.086 417.115 110.939 417.115 114.934ZM405.168 115.221H415.458C415.639 112.006 413.354 109.569 410.222 109.569C407.264 109.569 405.168 111.824 405.168 114.911V115.221Z" fill="white"/>
<path d="M150.446 87.0605C145.997 90.488 140.27 90.4426 135.692 87.0833C134.83 88.0139 134.172 89.0656 133.718 90.1854C139.4 94.3392 146.603 94.3316 152.338 89.9584C151.899 88.9369 151.286 87.9609 150.484 87.0984C150.469 87.0908 150.454 87.0757 150.446 87.0605Z" fill="white"/>
<path d="M209.621 58.4527C204.189 58.4527 199.725 61.1085 197.372 65.2698V48.0493H193.626V75.1058C193.626 76.3391 193.747 77.5194 193.967 78.6543C193.967 78.6543 193.967 78.6543 193.974 78.6543L193.967 78.6619C195.314 85.5698 200.61 90.4499 207.79 91.1384L207.798 91.1309C207.798 91.1309 207.798 91.1309 207.798 91.1384C208.373 91.1914 208.963 91.2216 209.561 91.2216C218.912 91.2216 225.676 84.344 225.676 74.8032C225.676 65.3304 218.92 58.4527 209.621 58.4527ZM209.621 87.7791C209.197 87.7791 208.781 87.7564 208.373 87.7185C208.373 87.7412 208.373 87.7564 208.373 87.7791C208.373 87.7866 208.373 87.7942 208.373 87.8018C208.373 87.7942 208.365 87.7942 208.365 87.7866C208.365 87.7639 208.365 87.7488 208.365 87.7261C202.766 87.2192 198.597 83.3075 197.523 77.7237C197.515 77.7237 197.515 77.7237 197.508 77.7237C197.515 77.7237 197.523 77.7237 197.53 77.7237C197.349 76.793 197.25 75.8246 197.25 74.8107C197.25 67.3278 202.441 61.8953 209.621 61.8953C216.741 61.8953 221.992 67.3278 221.931 74.8107C221.931 82.3466 216.68 87.7791 209.621 87.7791Z" fill="white"/>
</svg>
