<svg width="140" height="137" viewBox="0 0 140 137" fill="none" xmlns="http://www.w3.org/2000/svg">
<path d="M70 20.0001C89.632 20.0026 105.546 35.9179 105.546 55.5502C105.546 55.5871 105.546 55.6239 105.546 55.6608V55.6551C105.546 55.6863 105.546 55.7231 105.546 55.7601C105.546 65.3147 101.732 73.9786 95.5437 80.3125L95.5503 80.3056C91.4109 84.6406 88.8633 90.5267 88.8633 97.0077C88.8633 97.1063 88.8639 97.2048 88.865 97.3032V97.2883V99.4716H51.1311V97.2883L51.1312 97.1857C51.1312 90.5793 48.5471 84.5766 44.3344 80.133L44.3449 80.1441C38.2267 73.7696 34.4591 65.0976 34.4591 55.5459C34.4591 42.317 41.6856 30.7761 52.4062 24.6552L52.5808 24.5634C57.5948 21.6974 63.5991 20.0055 69.9983 20H70.0001L70 20.0001ZM84.559 95.1093C85.0361 88.1618 87.9328 81.9697 92.4031 77.2951L92.393 77.3059C97.8265 71.7575 101.179 64.1536 101.179 55.7664C101.179 55.7243 101.179 55.6821 101.179 55.6399V55.6463L101.179 55.5484C101.179 38.3287 87.2199 24.3694 70.0002 24.3694C52.7805 24.3694 38.8211 38.3288 38.8211 55.5485C38.8211 63.9385 42.1349 71.5542 47.5249 77.1587L47.5151 77.1486C51.9957 81.8709 54.9147 88.1138 55.4223 95.0268L55.4279 95.1223L84.559 95.1093ZM72.1834 44.2534V66.1268H57.5765L72.1834 44.2534ZM67.8166 61.7599V58.6551L65.7423 61.7599H67.8166ZM67.8166 79.5503V57.6115H82.4149L67.8166 79.5503ZM72.1834 61.9782V65.1051L74.2664 61.9782H72.1834ZM51.1354 95.1222H88.8646V105.646C88.8572 111.456 84.1498 116.163 78.3413 116.17H61.6594C55.8502 116.163 51.143 111.456 51.1355 105.647V105.646L51.1354 95.1222ZM84.4978 99.4892H55.5022V105.646C55.5071 109.045 58.2609 111.799 61.6589 111.804H78.3408C81.7393 111.799 84.4929 109.045 84.4979 105.647V105.646L84.4978 99.4892ZM28.2968 57.8298H20V53.463H28.2968V57.8298ZM40.8298 24.4674H32.4889V20.1005H40.8295L40.8298 24.4674ZM40.8298 91.1486H32.4889V86.7818H40.8295L40.8298 91.1486ZM120 57.8299H111.703V53.463H120V57.8299ZM107.511 91.1486H99.1704V86.7818H107.511V91.1486ZM107.511 24.4674H99.1704V20.1005H107.511V24.4674Z" fill="white"/>
</svg>
