<svg width="57" height="69" viewBox="0 0 57 69" fill="none" xmlns="http://www.w3.org/2000/svg">
<g clip-path="url(#clip0_15_88)">
<path d="M16.0612 53.7611C16.5398 53.5398 17.0234 53.1071 17.502 52.4631C17.9806 51.8192 18.4441 51.1098 18.8875 50.335C19.3308 49.5603 19.7288 48.7955 20.0764 48.0409C20.4291 47.2863 20.6961 46.6876 20.8775 46.2448L36.6112 9.45825L52.1786 46.6322C52.8789 48.2924 53.5439 49.6458 54.1737 50.6973C54.8034 51.7487 55.4281 52.5487 56.0579 53.1021C56.204 53.2128 56.3551 53.3335 56.5012 53.4593C56.6473 53.5901 56.8136 53.6907 57 53.7611H47.4731C47.992 53.3939 48.3598 52.9612 48.5815 52.4631C48.8032 51.9651 48.914 51.4418 48.914 50.8884C48.914 50.335 48.8032 49.6257 48.5815 48.7603C48.3598 47.895 47.992 46.8687 47.4731 45.6914L44.4251 38.5575H24.7618L21.3813 46.3002C20.9732 47.3315 20.6709 48.217 20.4694 48.9565C20.2679 49.6961 20.1671 50.3199 20.1671 50.8381C20.1671 51.2054 20.2477 51.6381 20.414 52.1361C20.5802 52.6342 20.9783 53.1423 21.603 53.6555L21.8246 53.7662H16.0612V53.7611ZM24.928 38.1047H44.3748L34.7874 15.259L24.928 38.1047Z" fill="white"/>
<path d="M26.4092 0C13.0937 0 2.2973 10.7814 2.2973 24.0783V44.9267C2.2973 58.2236 13.0937 69.005 26.4092 69.005C39.7247 69.005 50.5211 58.2236 50.5211 44.9267V24.0783C50.5161 10.7814 39.7247 0 26.4092 0ZM50.113 44.7506C50.113 57.8262 39.4979 68.4214 26.4092 68.4214C13.3154 68.4214 2.70538 57.8211 2.70538 44.7506V24.2494C2.70538 11.1738 13.3205 0.578564 26.4092 0.578564C39.503 0.578564 50.113 11.1789 50.113 24.2494V44.7506Z" fill="white"/>
<path d="M28.3287 63.9086C27.5881 63.8281 26.8375 63.8181 26.0818 63.7778V58.5959C25.7694 58.5255 25.4571 58.4551 25.1397 58.3896V63.7426C25.1447 63.7477 25.1447 63.7477 25.1447 63.7527C22.3788 63.7376 20.812 64.2357 20.1672 64.4117C20.0664 64.4369 19.9203 64.5828 19.9354 64.6532C19.9556 64.7589 20.0714 64.8897 20.1772 64.9299C20.5249 65.0507 20.8775 65.1664 21.2403 65.2318C23.3764 65.594 25.5326 65.6141 27.6839 65.4733C28.6764 65.4079 29.6588 65.2368 30.6412 65.0708C30.6462 65.0708 30.6512 65.0708 30.6563 65.0658C31.0543 64.9802 31.0644 64.3715 30.6664 64.286H30.6613C29.8855 64.1199 29.1046 63.9942 28.3287 63.9086Z" fill="white"/>
<path d="M0 9.43814H8.41851C7.34541 10.3588 6.71062 11.4103 6.5091 12.5926C6.30758 13.7749 6.20682 15.0477 6.20682 16.4111V41.7471C6.20682 44.0362 6.37308 46.2197 6.70559 48.3025C7.03809 50.3853 7.69304 52.2116 8.67041 53.7813C9.64778 55.3509 10.998 56.6036 12.7159 57.5444C14.4339 58.4852 16.6758 58.9531 19.4467 58.9531C22.6962 58.9531 25.5981 58.2538 28.1423 56.8502C29.8048 55.9295 31.0946 54.878 32.0216 53.6957C32.9435 52.5135 33.6287 51.2255 34.072 49.8219C34.5154 48.4182 34.7824 46.919 34.8731 45.3141C34.9638 43.7092 35.0091 42.0591 35.0091 40.3636V39.2115C35.0091 36.042 34.5859 33.9541 33.7345 32.958C33.5884 32.8473 33.4574 32.7266 33.3466 32.6008C33.2357 32.47 33.0896 32.3543 32.9032 32.2436H38.0571C36.8732 33.1643 36.1729 34.256 35.9512 35.5087C35.7295 36.7614 35.6187 38.0896 35.6187 39.4933V40.59C35.6187 42.2502 35.5633 43.8451 35.4525 45.3745C35.3416 46.9039 35.0847 48.3629 34.6766 49.7464C34.2685 51.1299 33.6438 52.4229 32.7924 53.6203C31.941 54.8176 30.7772 55.9345 29.301 56.9659C26.8274 58.6965 23.4116 59.5669 19.0537 59.5669C17.3559 59.5669 15.6833 59.4361 14.0409 59.1795C12.3985 58.9229 10.8619 58.45 9.44122 57.7708C8.02051 57.0866 6.77108 56.176 5.70302 55.034C4.62993 53.8919 3.78354 52.433 3.15379 50.6621C2.41321 48.7452 2.04543 45.0726 2.04543 39.6543V16.4111C2.04543 14.7911 1.93459 13.473 1.71292 12.4567C1.49125 11.4405 1.12348 10.6405 0.604561 10.0519C0.528991 9.94124 0.448383 9.83056 0.357698 9.71988C0.267014 9.60416 0.146102 9.51361 0 9.43814Z" fill="white"/>
<path d="M16.3181 21.2358C16.4491 21.2358 16.5751 21.2459 16.701 21.266V2.35954C16.3887 2.28911 16.0763 2.99847 15.7589 2.93307V21.2911C15.9352 21.2559 16.1267 21.2358 16.3181 21.2358Z" fill="white"/>
<path d="M16.0612 33.763C19.2164 33.763 21.7743 31.2087 21.7743 28.0578C21.7743 24.907 19.2164 22.3527 16.0612 22.3527C12.9059 22.3527 10.3481 24.907 10.3481 28.0578C10.3481 31.2087 12.9059 33.763 16.0612 33.763Z" fill="#EA5B27"/>
</g>
<defs>
<clipPath id="clip0_15_88">
<rect width="57" height="69" fill="white"/>
</clipPath>
</defs>
</svg>
