<svg width="180" height="118" viewBox="0 0 180 118" fill="none" xmlns="http://www.w3.org/2000/svg">
<path d="M97.9964 97.8192C96.918 97.8203 95.8472 97.5654 94.8574 97.0612L88.6514 93.9287C88.4185 93.8521 88.1866 93.769 87.9591 93.6848L84.015 92.2214L87.4789 89.8326C87.8628 89.5679 88.1592 89.2267 88.3627 88.8176L90.0569 85.3996C90.7099 84.0817 90.1794 82.4695 88.8746 81.811C88.2577 81.4982 87.5522 81.4457 86.8949 81.6656C86.2288 81.8876 85.6885 82.3601 85.3745 82.9956L83.6825 86.4081C83.4736 86.8368 83.3817 87.2995 83.4156 87.7774L83.6935 91.6285L73.5041 86.4792L76.6716 84.4054C77.0675 84.1462 77.377 83.7973 77.5871 83.3707L82.5253 73.4089C83.1772 72.0865 82.65 70.4699 81.3495 69.8115C80.7338 69.502 80.0327 69.4506 79.3742 69.6682C78.707 69.8903 78.1667 70.3639 77.8506 70.9993L72.9189 80.9656C72.7045 81.3976 72.6138 81.8548 72.6477 82.3284L72.9244 86.1795L62.7306 81.029L65.9058 78.9542C66.293 78.7015 66.608 78.3449 66.8147 77.926L70.8167 69.852C71.4697 68.5318 70.9436 66.9207 69.6442 66.2667C69.0241 65.9517 68.3252 65.8992 67.6689 66.1157C67.0028 66.3367 66.4614 66.8114 66.1442 67.4501L62.1444 75.5198C61.9355 75.9398 61.8436 76.4101 61.8775 76.8815L62.151 80.7282L51.5503 75.3798L54.6927 73.2995C55.1028 73.0282 55.4145 72.6793 55.6202 72.2626L57.3122 68.8424C57.9685 67.5223 57.4435 65.9134 56.1441 65.2549C55.525 64.9399 54.8217 64.8885 54.1655 65.1062C53.4994 65.3271 52.958 65.8007 52.6419 66.4395L50.952 69.852C50.7464 70.2676 50.6535 70.7149 50.6742 71.1853L50.8733 75.464L47.2913 73.1168C45.865 72.1828 44.6422 71.0059 43.6556 69.6212L47.2213 67.0837C47.2639 67.1449 47.3077 67.204 47.3525 67.2642L48.7219 64.4992C49.5597 62.806 51.0024 61.5471 52.7863 60.9543C54.5592 60.3648 56.4547 60.5048 58.1227 61.3524C60.1253 62.3674 61.4345 64.2301 61.837 66.2929L62.2242 65.5098C63.062 63.8178 64.5069 62.5578 66.2897 61.9649C68.0616 61.3765 69.9538 61.5176 71.6195 62.3631C73.5752 63.3496 74.8724 65.1489 75.3077 67.1559C76.0569 66.4209 76.968 65.8609 77.9906 65.5207C79.7636 64.9312 81.658 65.0679 83.3238 65.9101C86.757 67.6492 88.1571 71.8842 86.4464 75.3513L85.3439 77.576C85.3986 77.5553 85.4544 77.5367 85.5102 77.5181C87.2831 76.9253 89.1786 77.0653 90.8466 77.9075C94.2875 79.6476 95.6908 83.8804 93.9758 87.3443L92.2805 90.7634C92.2674 90.7896 92.2542 90.8159 92.2411 90.8421L96.8338 93.1598C97.455 93.4748 98.1517 93.5273 98.8058 93.3129C99.4719 93.092 100.013 92.6195 100.332 91.9807C100.785 91.0631 100.675 89.9398 100.05 89.1228L99.0486 87.8114L100.033 86.4868C100.233 86.2188 100.437 85.9039 100.655 85.5232L101.689 83.7284L107.614 86.7242C108.233 87.0381 108.935 87.0873 109.593 86.8674C110.258 86.6454 110.8 86.174 111.114 85.5396C111.765 84.2173 111.237 82.6018 109.937 81.9456L103.953 78.9104L106.334 74.1603L117.791 79.9626C118.408 80.2732 119.112 80.3224 119.771 80.1048C120.436 79.8828 120.976 79.4092 121.288 78.7759C121.948 77.447 121.422 75.8359 120.12 75.1785L108.756 69.432L109.542 67.554C109.64 67.3199 109.715 67.0837 109.79 66.8485L110.565 64.392L126.83 72.6203C127.446 72.9331 128.14 72.9856 128.794 72.769C129.465 72.547 130.009 72.0712 130.327 71.4303C130.981 70.109 130.455 68.4979 129.155 67.8406L105.307 55.771C104.095 55.6989 102.866 55.526 101.647 55.2581C96.9158 54.2015 92.6939 51.7012 89.8655 48.3171L83.2188 49.0598L83.1772 49.284C82.6063 52.1048 80.993 54.5045 78.6283 56.0685C76.2899 57.6151 73.4942 58.1554 70.7544 57.5932L68.031 57.031C67.8713 56.9939 67.7794 56.9676 67.6864 56.9414L65.6761 56.4218L65.9933 54.3612L69.6388 36.4182L83.0131 33.6303L89.5855 32.3528L92.1525 32.927L91.9447 32.2609L81.2205 31.177L75.5308 30.687L56.1681 37.2024L54.7736 33.0549L74.9992 26.2485L81.6296 26.8206L95.2741 28.2435L98.5914 38.8518L89.5242 36.8218L83.8805 37.9199L73.3553 40.1129L70.7139 53.1165L71.6403 53.3079C73.2317 53.6349 74.857 53.3199 76.2188 52.4187C77.6067 51.501 78.555 50.089 78.8864 48.4429L79.5241 45.0709L91.8769 43.6884L92.625 44.7329C94.8038 47.7768 98.4383 50.0562 102.6 50.9848C103.721 51.2331 104.856 51.3796 105.968 51.4212L106.446 51.4398L131.134 63.9359C134.567 65.6728 135.967 69.9045 134.252 73.3706C133.41 75.0681 131.962 76.3281 130.173 76.9209C128.772 77.3825 127.3 77.3912 125.925 76.9581C126.035 78.2115 125.813 79.5087 125.214 80.7151C124.383 82.3984 122.945 83.6562 121.164 84.2512C119.39 84.8407 117.494 84.7073 115.825 83.864L115.745 83.8279C115.835 85.0464 115.613 86.3042 115.038 87.4745C114.2 89.1665 112.761 90.4221 110.98 91.016C109.21 91.6078 107.313 91.4699 105.644 90.6289L104.963 90.2843C105.049 91.5203 104.817 92.7803 104.254 93.921C103.41 95.6164 101.965 96.8742 100.181 97.4648C99.4642 97.7021 98.7281 97.8192 97.9964 97.8192Z" fill="white"/>
<path d="M129.764 68.1459L105.306 55.7745C105.222 55.769 105.138 55.7635 105.053 55.758L104.735 55.7373C104.424 55.7066 104.106 55.6716 103.79 55.6323L103.688 55.6191C103.412 55.583 103.116 55.536 102.814 55.4857L102.647 55.4562C102.325 55.4004 101.978 55.3359 101.629 55.2549C101.313 55.1838 100.993 55.104 100.677 55.0241L100.111 54.8579C99.9608 54.8152 99.812 54.7715 99.6611 54.7223C99.5189 54.6785 99.3483 54.6184 99.1733 54.5549L99.0978 54.5309C98.9775 54.4915 98.855 54.4521 98.738 54.4095L97.8553 54.0671C97.6049 53.961 97.4025 53.8724 97.1969 53.7795L97.9636 51.7254L97.0952 53.7335L96.9475 53.6679C96.8217 53.6099 96.6938 53.5476 96.5647 53.4841L96.0419 53.2195C95.8603 53.132 95.6033 52.9909 95.3528 52.8443C95.3528 52.8443 95.2752 52.8071 95.191 52.7524C95.0542 52.6791 94.8388 52.5457 94.6211 52.4101C94.55 52.3751 94.4614 52.3193 94.3685 52.2493C92.7935 51.2255 90.933 49.422 89.9005 48.3654L83.2166 49.0709L83.1772 49.2841C82.6063 52.1049 80.9919 54.5046 78.6272 56.0687C76.2899 57.6141 73.4942 58.1566 70.7544 57.5934L68.031 57.0301C67.8778 56.9951 67.7838 56.9688 67.6897 56.9426L65.6739 56.4263L65.9922 54.3613L69.6355 36.4282L71.1645 36.0979L89.4291 32.3223L111.032 37.1435L125.361 32.3245L126.755 36.472L111.269 41.6815L89.3941 36.7968L73.351 40.1141L70.7095 53.1155L71.637 53.3069C73.2274 53.6329 74.8527 53.319 76.2144 52.4177C77.6024 51.5001 78.5506 50.0891 78.882 48.442L79.5219 45.0601L91.5991 43.787L92.345 44.5898C93.0953 45.4002 95.3616 47.7026 96.8185 48.6213L97.0241 48.7515C97.1816 48.8499 97.303 48.9243 97.4299 48.9954C97.4452 49.002 97.5031 49.0326 97.5578 49.0643C97.7339 49.1682 97.9013 49.259 98.0719 49.3443C98.1561 49.387 98.2239 49.422 98.2819 49.4537L98.773 49.6921C98.9075 49.7512 98.983 49.784 99.0585 49.8201C99.1766 49.8737 99.3461 49.947 99.5156 50.0191L100.589 50.4162C100.767 50.4807 100.874 50.5201 100.98 50.5529C101.113 50.5955 101.214 50.624 101.317 50.6535L101.487 50.7027C101.539 50.717 101.645 50.7487 101.749 50.7815C102.032 50.8559 102.316 50.9259 102.602 50.9904C102.878 51.0538 103.149 51.1041 103.425 51.1512C103.78 51.2113 104.025 51.2518 104.279 51.2846L104.339 51.2923C104.594 51.324 104.853 51.3524 105.106 51.3776L105.331 51.3918C105.54 51.4049 105.748 51.418 105.948 51.4246L106.43 51.4421L130.105 63.4165L135.722 61.5276L137.114 65.6751L129.764 68.1459Z" fill="white"/>
<path d="M86.0122 94.6573C84.9337 94.6573 83.8509 94.3992 82.884 93.9092C79.4497 92.1691 78.0497 87.9341 79.7614 84.4669L81.4523 81.0533C82.6412 78.6481 85.0409 77.1541 87.714 77.1541C88.7958 77.1541 89.8786 77.4133 90.8487 77.9055C94.2886 79.6434 95.693 83.8762 93.9747 87.3423L92.2794 90.7592C91.0828 93.1622 88.682 94.6573 86.0122 94.6573ZM87.7119 81.5301C86.7155 81.5301 85.8197 82.0912 85.3723 82.9947L83.6803 86.4061C83.0273 87.7295 83.5556 89.3461 84.8583 90.0056C86.1172 90.6422 87.7272 90.0822 88.3594 88.8112L90.0536 85.3976C90.7066 84.0797 90.1761 82.4686 88.8712 81.8102C88.5059 81.6242 88.1155 81.5301 87.7119 81.5301Z" fill="white"/>
<path d="M53.2806 78.0967C52.2022 78.0967 51.1205 77.8396 50.1525 77.3507C46.7094 75.6139 45.3094 71.3767 47.032 67.904L48.7208 64.4948C49.9108 62.0885 52.3083 60.5945 54.9781 60.5945C56.062 60.5945 57.1492 60.8559 58.1227 61.3492C61.5548 63.086 62.9516 67.3189 61.2344 70.7817L59.5456 74.1953C58.3578 76.6004 55.9581 78.0967 53.2806 78.0967ZM54.977 64.9706C53.9839 64.9706 53.0881 65.5328 52.6408 66.4362L50.9509 69.8476C50.2925 71.1743 50.8186 72.7876 52.1212 73.4439C53.3911 74.0848 54.9945 73.5259 55.6202 72.2582L57.3111 68.8392C57.9673 67.519 57.4412 65.9101 56.143 65.2528C55.7744 65.0657 55.3839 64.9706 54.977 64.9706Z" fill="white"/>
<path d="M75.2464 89.2114C75.2453 89.2114 75.2453 89.2114 75.2464 89.2114C74.1647 89.2114 73.0808 88.951 72.1117 88.4578C68.6719 86.7154 67.2752 82.4804 68.9989 79.0176L73.9295 69.0579C75.1195 66.6528 77.5203 65.1587 80.1945 65.1587C81.273 65.1587 82.3558 65.4168 83.3237 65.9068C86.757 67.6448 88.157 71.8798 86.4464 75.347L81.5081 85.311C80.317 87.7151 77.9173 89.2114 75.2464 89.2114ZM80.1934 69.5326C79.1948 69.5326 78.298 70.0937 77.8495 70.9971L72.9178 80.9634C72.2583 82.2857 72.7866 83.8957 74.0903 84.5553C75.3634 85.2017 76.957 84.6362 77.5859 83.3674L82.5231 73.4067C83.175 72.0843 82.6478 70.4678 81.3473 69.8093C80.9864 69.6256 80.5959 69.5326 80.1934 69.5326Z" fill="white"/>
<path d="M64.4795 83.7624C63.3967 83.7624 62.3117 83.5021 61.3405 83.0088C57.9137 81.2741 56.5137 77.0424 58.2222 73.5785L62.2231 65.5066C63.4131 63.1026 65.8095 61.6074 68.4794 61.6074C69.5611 61.6074 70.6472 61.8677 71.6195 62.361C75.0495 64.0891 76.4517 68.3209 74.7389 71.7924L70.738 79.8621C69.5458 82.2662 67.1472 83.7624 64.4795 83.7624ZM68.4794 65.9824C67.4873 65.9824 66.5916 66.5446 66.1442 67.448L62.1444 75.5177C61.4936 76.8357 62.0208 78.4479 63.3201 79.1052C63.6876 79.2923 64.0759 79.3863 64.4795 79.3863C65.4727 79.3863 66.3684 78.823 66.8169 77.9174L70.8167 69.851C71.4697 68.5298 70.9436 66.9198 69.6453 66.2657C69.2723 66.0765 68.8819 65.9824 68.4794 65.9824Z" fill="white"/>
<path d="M137.414 73.4812L123.308 30.6587L145.895 21.2524L160 64.0848L137.414 73.4812ZM128.733 33.1393L140.093 67.6264L154.575 61.6009L143.215 27.1073L128.733 33.1393Z" fill="white"/>
<path d="M44.185 77.2525L20 68.3483L35.8637 20.1807L60.0444 29.0849L44.185 77.2525ZM25.4775 65.7036L41.4473 71.5825L54.5669 31.7296L38.6025 25.8507L25.4775 65.7036Z" fill="white"/>
<path d="M35.1287 59.9182L40.1243 61.5996L38.7284 65.7473L33.7327 64.0659L35.1287 59.9182Z" fill="white"/>
<path d="M145.608 57.0825L146.973 61.2392L142.676 62.6503L141.311 58.4936L145.608 57.0825Z" fill="white"/>
</svg>
