<svg width="55" height="74" viewBox="0 0 55 74" fill="none" xmlns="http://www.w3.org/2000/svg">
<path d="M20.7209 0H33.4199C41.3562 0 47.7898 6.4336 47.7898 14.3698V41.7728H6.01689V14.2896C6.31822 6.3771 12.7717 0.0683509 20.7143 7.17577e-05L20.7209 0ZM44.4479 38.4311V14.37C44.4479 8.27929 39.5106 3.34194 33.4199 3.34194H20.7211C14.5769 3.41302 9.59512 8.292 9.35955 14.3884L9.35883 14.41V38.4312L44.4479 38.4311ZM9.35876 38.4311H44.4479C49.7709 38.5036 54.0669 42.7994 54.1392 48.1155V48.1224C54.1403 48.1641 54.1409 48.2132 54.1409 48.2624C54.1409 49.9776 53.4455 51.5302 52.3214 52.6539C51.1978 53.7781 49.645 54.4734 47.9299 54.4734C47.8807 54.4734 47.8316 54.4729 47.7825 54.4717L47.7897 54.4719H6.35111C6.30946 54.4729 6.26028 54.4734 6.2111 54.4734C4.49587 54.4734 2.94332 53.7781 1.81963 52.654C0.695427 51.5303 0 49.9776 0 48.2626C0 48.2132 0.000574377 48.1642 0.00172313 48.1151L0.00157954 48.1223V48.0821C0.00157954 45.4699 1.01916 43.0955 2.67961 41.3335L2.67509 41.3385C4.34437 39.5476 6.71691 38.4311 9.35022 38.4311H9.35919H9.35876ZM47.7898 51.13C47.8207 51.1311 47.8572 51.1319 47.8937 51.1319C48.6961 51.1319 49.4227 50.8068 49.9487 50.2811C50.4743 49.7551 50.7994 49.0286 50.7994 48.2262C50.7994 48.1896 50.7986 48.1533 50.7974 48.1171L50.7975 48.1223C50.751 44.6344 47.9359 41.8193 44.4524 41.7729H9.35797C7.67792 41.7729 6.16465 42.4865 5.10471 43.6274L5.1014 43.631C4.01238 44.7922 3.34345 46.3589 3.34345 48.0817C3.34345 48.0961 3.34345 48.1103 3.34359 48.1246V48.1224C3.34245 48.1533 3.34173 48.1897 3.34173 48.2262C3.34173 49.0286 3.66682 49.7551 4.19252 50.2812C4.71851 50.8068 5.44502 51.1319 6.24736 51.1319C6.28397 51.1319 6.3203 51.1311 6.35649 51.1298L6.35125 51.13H47.7898ZM28.7413 67.1709H25.3995V51.13H28.7413V67.1709ZM14.3715 63.4949C17.14 63.4949 19.3842 65.7391 19.3842 68.5076C19.3842 71.276 17.1398 73.5203 14.3715 73.5203C11.603 73.5203 9.35876 71.2759 9.35876 68.5076C9.35876 65.7391 11.6031 63.4949 14.3715 63.4949ZM14.3715 70.1785C15.2943 70.1785 16.0424 69.4304 16.0424 68.5076C16.0424 67.5848 15.2943 66.8366 14.3715 66.8366C13.4487 66.8366 12.7006 67.5848 12.7006 68.5076C12.7006 69.4304 13.4487 70.1785 14.3714 70.1785H14.3715ZM39.7694 63.4949C42.5379 63.4949 44.7821 65.7391 44.7821 68.5076C44.7821 71.276 42.5377 73.5203 39.7694 73.5203C37.0009 73.5203 34.7566 71.2759 34.7566 68.5076C34.7566 65.7391 37.0009 63.4948 39.7693 63.4948L39.7694 63.4949ZM39.7694 70.1785C40.6922 70.1785 41.4403 69.4304 41.4403 68.5076C41.4403 67.5848 40.6922 66.8366 39.7694 66.8366C38.8466 66.8366 38.0984 67.5848 38.0984 68.5076C38.0984 69.4304 38.8466 70.1785 39.7694 70.1785ZM39.7694 67.1709H14.3715V63.8289H39.7694V67.1709Z" fill="white"/>
</svg>
