<svg width="140" height="126" viewBox="0 0 140 126" fill="none" xmlns="http://www.w3.org/2000/svg">
<path fill-rule="evenodd" clip-rule="evenodd" d="M72.9732 78.8906C72.9508 78.8906 72.9285 78.8906 72.9062 78.8906C72.1635 78.8906 71.5659 78.2285 71.5659 77.4193C71.5659 76.61 72.169 75.9479 72.9062 75.9479H72.9676C76.1674 75.9479 78.993 75.4145 81.1318 74.403C82.835 73.5999 84.097 72.4902 84.6834 71.2886C85.1301 70.369 85.1357 69.4739 84.7057 68.7628C84.4209 68.2968 83.2203 66.8132 79.6464 67.2117C75.2962 67.696 71.672 66.0285 68.757 64.6859C66.8305 63.7969 65.1664 63.0367 63.7424 63.0306H63.7368C60.3974 63.0306 57.9068 65.5687 55.0197 68.5053C52.2053 71.3744 49.0111 74.6237 44.4543 75.8437C43.7339 76.0399 43.008 75.5555 42.8349 74.7647C42.6617 73.9738 43.0973 73.1768 43.8177 72.9868C47.6988 71.9446 50.4909 69.0999 53.1937 66.3534C54.7517 64.7717 56.2204 63.2697 57.8733 62.1171C59.8166 60.7561 61.732 60.094 63.7312 60.094H63.7368C65.6969 60.094 67.6849 61.0075 69.7846 61.9761C72.5544 63.2513 75.6983 64.6981 79.3672 64.2874C82.8294 63.9011 85.5825 64.9372 86.9227 67.132C87.9223 68.7689 87.9614 70.792 87.04 72.6864C86.4257 73.9493 85.0799 75.7456 82.1872 77.1127C79.6855 78.2898 76.5806 78.8906 72.9732 78.8906Z" fill="white"/>
<path fill-rule="evenodd" clip-rule="evenodd" d="M55.8238 95.5477C55.4441 95.5477 55.07 95.376 54.8075 95.0327C54.3273 94.4135 54.3887 93.4878 54.9527 92.9605C57.6052 90.4592 59.8501 88.9388 62.0168 88.1848C63.9378 87.5165 65.8197 87.4552 67.9473 87.9886C74.9835 89.7665 79.9367 88.5281 83.9127 87.5349C84.1752 87.4675 84.4377 87.4062 84.6945 87.3387C87.5369 86.6398 93.4786 83.55 98.8228 80.0003C105.92 75.2797 108.852 71.9017 109.209 70.4426C109.338 69.9031 109.494 68.9345 109.064 68.4931C108.562 67.9781 106.993 67.7329 104.234 68.7567C104.083 68.8119 103.396 69.1429 102.67 69.4924C97.5551 71.9446 83.9742 78.4554 75.8993 78.7435C75.1566 78.7681 74.5423 78.1305 74.5144 77.3212C74.4921 76.512 75.0728 75.8315 75.81 75.8008C83.3655 75.5311 97.086 68.9529 101.593 66.7949C102.676 66.2738 103.128 66.0592 103.374 65.9672C107.724 64.3549 109.863 65.2867 110.896 66.3473C111.655 67.132 112.426 68.6034 111.795 71.2028C111.41 72.7845 110.058 74.6237 107.668 76.8185C105.753 78.578 103.173 80.5459 100.208 82.52C94.5564 86.2781 88.4137 89.4415 85.2809 90.214C85.0296 90.2753 84.7727 90.3427 84.5103 90.4041C80.2662 91.4647 74.9835 92.7889 67.3498 90.8577C64.4013 90.1159 61.5924 90.5818 56.7006 95.1921C56.4437 95.4309 56.131 95.5477 55.8238 95.5477Z" fill="white"/>
<path fill-rule="evenodd" clip-rule="evenodd" d="M45.4371 109.323C45.0015 109.323 44.5715 109.09 44.3147 108.655C43.9126 107.974 44.0857 107.061 44.7056 106.619L56.5945 98.1285L41.0702 71.9322L29.1869 80.4232C28.567 80.8646 27.735 80.6745 27.3329 79.994C26.9308 79.3135 27.1039 78.4 27.7238 77.9586L40.7352 68.6646C41.0311 68.45 41.3941 68.3764 41.7459 68.4561C42.0921 68.5358 42.3993 68.7688 42.5891 69.0937L59.5765 97.7546C59.9786 98.4351 59.8054 99.3485 59.1856 99.7899L46.1742 109.084C45.9453 109.243 45.6884 109.323 45.4371 109.323Z" fill="white"/>
<path fill-rule="evenodd" clip-rule="evenodd" d="M92.2163 57.2189C91.8589 57.2189 91.5183 57.0656 91.267 56.7897L75.0335 38.9679C72.7887 36.5033 71.549 33.2234 71.549 29.7351C71.549 26.2467 72.7887 22.9668 75.0335 20.5023C77.2784 18.0378 80.266 16.6768 83.4434 16.6768C86.6209 16.6768 89.6085 18.0378 91.8534 20.5023L92.2163 20.9008L92.5793 20.5023C97.2143 15.4138 104.759 15.4138 109.399 20.5023C111.644 22.9668 112.884 26.2467 112.884 29.7351C112.884 33.2234 111.644 36.5033 109.399 38.9679L93.1657 56.7897C92.9146 57.0656 92.5737 57.2189 92.2163 57.2189ZM83.4437 19.6256C81.0871 19.6256 78.725 20.6126 76.9324 22.5806C75.1901 24.4934 74.2352 27.0315 74.2352 29.7289C74.2352 32.4264 75.1957 34.9707 76.9324 36.8773L92.2222 53.6631L107.506 36.8834C111.097 32.9414 111.097 26.5226 107.506 22.5806C105.764 20.6678 103.452 19.6195 100.995 19.6195C98.5324 19.6195 96.2205 20.674 94.4838 22.5806L93.1715 24.0213C92.9202 24.2972 92.5796 24.4504 92.2222 24.4504C91.8648 24.4504 91.5241 24.2972 91.2728 24.0213L89.9605 22.5806C88.1622 20.6126 85.8056 19.6256 83.4437 19.6256Z" fill="white"/>
</svg>
