<svg width="55" height="55" viewBox="0 0 55 55" fill="none" xmlns="http://www.w3.org/2000/svg">
<path d="M47.3712 3.38367C51.1086 3.38367 54.1385 6.4135 54.1385 10.151V27.0693C54.1385 30.8068 51.1086 33.8366 47.3712 33.8366H43.9875V52.4467C43.9875 53.3811 43.23 54.1385 42.2957 54.1385C41.3613 54.1385 40.6038 53.3811 40.6038 52.4467V33.8366H13.5346V52.4467C13.5346 53.3811 12.7771 54.1385 11.8427 54.1385C10.9084 54.1385 10.1509 53.3811 10.1509 52.4467V33.8366H6.76725C3.02977 33.8366 -6.10352e-05 30.8068 -6.10352e-05 27.0693V10.151C-6.10352e-05 6.4135 3.02977 3.38367 6.76725 3.38367H47.3712ZM25.3774 23.6856H6.76725C4.89851 23.6856 3.3836 25.2005 3.3836 27.0693V27.0676C3.3836 28.8531 4.76392 30.3145 6.51473 30.4437L6.76725 30.4529L25.3774 30.4512V23.6856ZM47.3712 23.6856L28.761 23.6839V30.4512L47.3712 30.4529C49.1549 30.4529 50.6164 29.0726 50.7455 27.3218L50.7548 27.0693C50.7548 25.2005 49.2399 23.6856 47.3712 23.6856ZM47.3712 6.76733H6.76725C4.89851 6.76733 3.3836 8.28224 3.3836 10.151L3.38339 21.2074C4.37882 20.6316 5.53455 20.302 6.76725 20.302H47.3712C48.6045 20.302 49.7609 20.6319 50.7567 21.2084L50.7548 10.151C50.7548 8.28224 49.2399 6.76733 47.3712 6.76733Z" fill="white"/>
</svg>
